STARTFONT 2.1
COMMENT
COMMENT Converted from OpenType font "lcdsolid.ttf" by "otf2bdf 3.0".
COMMENT
FONT -FreeType-LCD Solid-Medium-R-Normal--9-100-64-64-P-50-ISO10646-1
SIZE 10 64 64
FONTBOUNDINGBOX 5 8 0 0
STARTPROPERTIES 19
FOUNDRY "FreeType"
FAMILY_NAME "LCD Solid"
WEIGHT_NAME "Medium"
SLANT "R"
SETWIDTH_NAME "Normal"
ADD_STYLE_NAME ""
PIXEL_SIZE 9
POINT_SIZE 100
RESOLUTION_X 64
RESOLUTION_Y 64
SPACING "P"
AVERAGE_WIDTH 50
CHARSET_REGISTRY "ISO10646"
CHARSET_ENCODING "1"
FONT_ASCENT 7
FONT_DESCENT 1
COPYRIGHT "Public domain / GNU GPL"
_OTF_FONTFILE "lcdsolid.ttf"
_OTF_PSNAME "LCDSolid"
ENDPROPERTIES
CHARS 193
STARTCHAR 0020
ENCODING 32
SWIDTH 562 0
DWIDTH 5 0
BBX 0 0 0 0
BITMAP
ENDCHAR
STARTCHAR 0021
ENCODING 33
SWIDTH 562 0
DWIDTH 5 0
BBX 1 7 2 1
BITMAP
80
80
80
80
00
00
80
ENDCHAR
STARTCHAR 0022
ENCODING 34
SWIDTH 562 0
DWIDTH 5 0
BBX 3 3 1 5
BITMAP
A0
A0
A0
ENDCHAR
STARTCHAR 0023
ENCODING 35
SWIDTH 562 0
DWIDTH 5 0
BBX 5 7 0 1
BITMAP
50
50
F8
50
F8
50
50
ENDCHAR
STARTCHAR 0024
ENCODING 36
SWIDTH 562 0
DWIDTH 5 0
BBX 5 7 0 1
BITMAP
20
78
80
70
08
F0
20
ENDCHAR
STARTCHAR 0025
ENCODING 37
SWIDTH 562 0
DWIDTH 5 0
BBX 5 7 0 1
BITMAP
C0
C8
10
20
40
98
18
ENDCHAR
STARTCHAR 0026
ENCODING 38
SWIDTH 562 0
DWIDTH 5 0
BBX 5 7 0 1
BITMAP
60
90
A0
40
A8
98
68
ENDCHAR
STARTCHAR 0027
ENCODING 39
SWIDTH 562 0
DWIDTH 5 0
BBX 2 3 1 5
BITMAP
C0
40
80
ENDCHAR
STARTCHAR 0028
ENCODING 40
SWIDTH 562 0
DWIDTH 5 0
BBX 3 7 1 1
BITMAP
20
40
80
80
80
40
20
ENDCHAR
STARTCHAR 0029
ENCODING 41
SWIDTH 562 0
DWIDTH 5 0
BBX 3 7 1 1
BITMAP
80
40
20
20
20
40
80
ENDCHAR
STARTCHAR 002A
ENCODING 42
SWIDTH 562 0
DWIDTH 5 0
BBX 5 5 0 2
BITMAP
20
A8
70
A8
20
ENDCHAR
STARTCHAR 002B
ENCODING 43
SWIDTH 562 0
DWIDTH 5 0
BBX 5 5 0 2
BITMAP
20
20
F8
20
20
ENDCHAR
STARTCHAR 002C
ENCODING 44
SWIDTH 562 0
DWIDTH 5 0
BBX 2 3 1 1
BITMAP
C0
40
80
ENDCHAR
STARTCHAR 002D
ENCODING 45
SWIDTH 562 0
DWIDTH 5 0
BBX 5 1 0 4
BITMAP
F8
ENDCHAR
STARTCHAR 002E
ENCODING 46
SWIDTH 562 0
DWIDTH 5 0
BBX 2 2 1 1
BITMAP
C0
C0
ENDCHAR
STARTCHAR 002F
ENCODING 47
SWIDTH 562 0
DWIDTH 5 0
BBX 5 5 0 2
BITMAP
08
10
20
40
80
ENDCHAR
STARTCHAR 0030
ENCODING 48
SWIDTH 562 0
DWIDTH 5 0
BBX 5 7 0 1
BITMAP
70
88
98
A8
C8
88
70
ENDCHAR
STARTCHAR 0031
ENCODING 49
SWIDTH 562 0
DWIDTH 5 0
BBX 3 7 1 1
BITMAP
40
C0
40
40
40
60
E0
ENDCHAR
STARTCHAR 0032
ENCODING 50
SWIDTH 562 0
DWIDTH 5 0
BBX 5 7 0 1
BITMAP
70
88
08
10
20
40
F8
ENDCHAR
STARTCHAR 0033
ENCODING 51
SWIDTH 562 0
DWIDTH 5 0
BBX 5 7 0 1
BITMAP
F8
10
20
10
08
88
70
ENDCHAR
STARTCHAR 0034
ENCODING 52
SWIDTH 562 0
DWIDTH 5 0
BBX 5 7 0 1
BITMAP
10
30
50
90
F8
10
10
ENDCHAR
STARTCHAR 0035
ENCODING 53
SWIDTH 562 0
DWIDTH 5 0
BBX 5 7 0 1
BITMAP
F8
80
F0
08
08
88
70
ENDCHAR
STARTCHAR 0036
ENCODING 54
SWIDTH 562 0
DWIDTH 5 0
BBX 5 7 0 1
BITMAP
30
40
80
F0
88
88
70
ENDCHAR
STARTCHAR 0037
ENCODING 55
SWIDTH 562 0
DWIDTH 5 0
BBX 5 7 0 1
BITMAP
F8
08
10
20
40
40
40
ENDCHAR
STARTCHAR 0038
ENCODING 56
SWIDTH 562 0
DWIDTH 5 0
BBX 5 7 0 1
BITMAP
70
88
88
70
88
88
70
ENDCHAR
STARTCHAR 0039
ENCODING 57
SWIDTH 562 0
DWIDTH 5 0
BBX 5 7 0 1
BITMAP
70
88
88
78
08
10
60
ENDCHAR
STARTCHAR 003A
ENCODING 58
SWIDTH 562 0
DWIDTH 5 0
BBX 2 5 1 2
BITMAP
C0
C0
00
C0
C0
ENDCHAR
STARTCHAR 003B
ENCODING 59
SWIDTH 562 0
DWIDTH 5 0
BBX 2 6 1 1
BITMAP
C0
C0
00
C0
40
80
ENDCHAR
STARTCHAR 003C
ENCODING 60
SWIDTH 562 0
DWIDTH 5 0
BBX 4 7 0 1
BITMAP
10
20
40
80
40
20
10
ENDCHAR
STARTCHAR 003D
ENCODING 61
SWIDTH 562 0
DWIDTH 5 0
BBX 5 3 0 3
BITMAP
F8
00
F8
ENDCHAR
STARTCHAR 003E
ENCODING 62
SWIDTH 562 0
DWIDTH 5 0
BBX 4 7 0 1
BITMAP
80
40
20
10
20
40
80
ENDCHAR
STARTCHAR 003F
ENCODING 63
SWIDTH 562 0
DWIDTH 5 0
BBX 5 7 0 1
BITMAP
70
88
08
10
20
00
20
ENDCHAR
STARTCHAR 0040
ENCODING 64
SWIDTH 562 0
DWIDTH 5 0
BBX 5 7 0 1
BITMAP
70
88
08
68
A8
A8
70
ENDCHAR
STARTCHAR 0041
ENCODING 65
SWIDTH 562 0
DWIDTH 5 0
BBX 5 7 0 1
BITMAP
70
88
88
88
F8
88
88
ENDCHAR
STARTCHAR 0042
ENCODING 66
SWIDTH 562 0
DWIDTH 5 0
BBX 5 7 0 1
BITMAP
F0
88
88
F0
88
88
F0
ENDCHAR
STARTCHAR 0043
ENCODING 67
SWIDTH 562 0
DWIDTH 5 0
BBX 5 7 0 1
BITMAP
70
88
80
80
80
88
70
ENDCHAR
STARTCHAR 0044
ENCODING 68
SWIDTH 562 0
DWIDTH 5 0
BBX 5 7 0 1
BITMAP
E0
90
88
88
88
90
E0
ENDCHAR
STARTCHAR 0045
ENCODING 69
SWIDTH 562 0
DWIDTH 5 0
BBX 5 7 0 1
BITMAP
F8
80
80
F0
80
80
F8
ENDCHAR
STARTCHAR 0046
ENCODING 70
SWIDTH 562 0
DWIDTH 5 0
BBX 5 7 0 1
BITMAP
F8
80
80
F0
80
80
80
ENDCHAR
STARTCHAR 0047
ENCODING 71
SWIDTH 562 0
DWIDTH 5 0
BBX 5 7 0 1
BITMAP
70
88
80
B8
88
88
78
ENDCHAR
STARTCHAR 0048
ENCODING 72
SWIDTH 562 0
DWIDTH 5 0
BBX 5 7 0 1
BITMAP
88
88
88
F8
88
88
88
ENDCHAR
STARTCHAR 0049
ENCODING 73
SWIDTH 562 0
DWIDTH 5 0
BBX 3 7 1 1
BITMAP
E0
40
40
40
40
40
E0
ENDCHAR
STARTCHAR 004A
ENCODING 74
SWIDTH 562 0
DWIDTH 5 0
BBX 5 7 0 1
BITMAP
38
10
10
10
10
90
60
ENDCHAR
STARTCHAR 004B
ENCODING 75
SWIDTH 562 0
DWIDTH 5 0
BBX 5 7 0 1
BITMAP
88
90
A0
C0
A0
90
88
ENDCHAR
STARTCHAR 004C
ENCODING 76
SWIDTH 562 0
DWIDTH 5 0
BBX 5 7 0 1
BITMAP
80
80
80
80
80
80
F8
ENDCHAR
STARTCHAR 004D
ENCODING 77
SWIDTH 562 0
DWIDTH 5 0
BBX 5 7 0 1
BITMAP
88
D8
A8
A8
88
88
88
ENDCHAR
STARTCHAR 004E
ENCODING 78
SWIDTH 562 0
DWIDTH 5 0
BBX 5 7 0 1
BITMAP
88
88
C8
A8
98
88
88
ENDCHAR
STARTCHAR 004F
ENCODING 79
SWIDTH 562 0
DWIDTH 5 0
BBX 5 7 0 1
BITMAP
70
88
88
88
88
88
70
ENDCHAR
STARTCHAR 0050
ENCODING 80
SWIDTH 562 0
DWIDTH 5 0
BBX 5 7 0 1
BITMAP
F0
88
88
F0
80
80
80
ENDCHAR
STARTCHAR 0051
ENCODING 81
SWIDTH 562 0
DWIDTH 5 0
BBX 5 7 0 1
BITMAP
70
88
88
88
A8
98
68
ENDCHAR
STARTCHAR 0052
ENCODING 82
SWIDTH 562 0
DWIDTH 5 0
BBX 5 7 0 1
BITMAP
F0
88
88
F0
A0
90
88
ENDCHAR
STARTCHAR 0053
ENCODING 83
SWIDTH 562 0
DWIDTH 5 0
BBX 5 7 0 1
BITMAP
78
80
80
70
08
08
F0
ENDCHAR
STARTCHAR 0054
ENCODING 84
SWIDTH 562 0
DWIDTH 5 0
BBX 5 7 0 1
BITMAP
F8
20
20
20
20
20
20
ENDCHAR
STARTCHAR 0055
ENCODING 85
SWIDTH 562 0
DWIDTH 5 0
BBX 5 7 0 1
BITMAP
88
88
88
88
88
88
70
ENDCHAR
STARTCHAR 0056
ENCODING 86
SWIDTH 562 0
DWIDTH 5 0
BBX 5 7 0 1
BITMAP
88
88
88
88
88
50
20
ENDCHAR
STARTCHAR 0057
ENCODING 87
SWIDTH 562 0
DWIDTH 5 0
BBX 5 7 0 1
BITMAP
88
88
88
A8
A8
A8
50
ENDCHAR
STARTCHAR 0058
ENCODING 88
SWIDTH 562 0
DWIDTH 5 0
BBX 5 7 0 1
BITMAP
88
88
50
20
50
88
88
ENDCHAR
STARTCHAR 0059
ENCODING 89
SWIDTH 562 0
DWIDTH 5 0
BBX 5 7 0 1
BITMAP
88
88
88
50
20
20
20
ENDCHAR
STARTCHAR 005A
ENCODING 90
SWIDTH 562 0
DWIDTH 5 0
BBX 5 7 0 1
BITMAP
F8
08
10
20
40
F8
F8
ENDCHAR
STARTCHAR 005B
ENCODING 91
SWIDTH 562 0
DWIDTH 5 0
BBX 3 7 1 1
BITMAP
E0
80
80
80
80
80
E0
ENDCHAR
STARTCHAR 005C
ENCODING 92
SWIDTH 562 0
DWIDTH 5 0
BBX 5 5 0 2
BITMAP
80
40
20
10
08
ENDCHAR
STARTCHAR 005D
ENCODING 93
SWIDTH 562 0
DWIDTH 5 0
BBX 3 7 1 1
BITMAP
E0
20
20
20
20
20
E0
ENDCHAR
STARTCHAR 005E
ENCODING 94
SWIDTH 562 0
DWIDTH 5 0
BBX 5 3 0 5
BITMAP
20
50
88
ENDCHAR
STARTCHAR 005F
ENCODING 95
SWIDTH 562 0
DWIDTH 5 0
BBX 5 1 0 1
BITMAP
F8
ENDCHAR
STARTCHAR 0060
ENCODING 96
SWIDTH 562 0
DWIDTH 5 0
BBX 2 2 2 6
BITMAP
80
40
ENDCHAR
STARTCHAR 0061
ENCODING 97
SWIDTH 562 0
DWIDTH 5 0
BBX 5 5 0 1
BITMAP
70
08
78
88
78
ENDCHAR
STARTCHAR 0062
ENCODING 98
SWIDTH 562 0
DWIDTH 5 0
BBX 5 7 0 1
BITMAP
80
80
B0
C8
88
88
F0
ENDCHAR
STARTCHAR 0063
ENCODING 99
SWIDTH 562 0
DWIDTH 5 0
BBX 5 5 0 1
BITMAP
70
80
80
88
70
ENDCHAR
STARTCHAR 0064
ENCODING 100
SWIDTH 562 0
DWIDTH 5 0
BBX 5 7 0 1
BITMAP
08
08
68
98
88
88
78
ENDCHAR
STARTCHAR 0065
ENCODING 101
SWIDTH 562 0
DWIDTH 5 0
BBX 5 5 0 1
BITMAP
70
88
F8
80
70
ENDCHAR
STARTCHAR 0066
ENCODING 102
SWIDTH 562 0
DWIDTH 5 0
BBX 5 7 0 1
BITMAP
30
48
40
E0
40
40
40
ENDCHAR
STARTCHAR 0067
ENCODING 103
SWIDTH 562 0
DWIDTH 5 0
BBX 5 6 0 1
BITMAP
78
88
88
78
08
70
ENDCHAR
STARTCHAR 0068
ENCODING 104
SWIDTH 562 0
DWIDTH 5 0
BBX 5 7 0 1
BITMAP
80
80
B0
C8
88
88
88
ENDCHAR
STARTCHAR 0069
ENCODING 105
SWIDTH 562 0
DWIDTH 5 0
BBX 3 7 1 1
BITMAP
40
00
C0
40
40
60
E0
ENDCHAR
STARTCHAR 006A
ENCODING 106
SWIDTH 562 0
DWIDTH 5 0
BBX 4 7 0 1
BITMAP
10
00
30
10
10
90
60
ENDCHAR
STARTCHAR 006B
ENCODING 107
SWIDTH 562 0
DWIDTH 5 0
BBX 4 7 0 1
BITMAP
80
80
90
A0
C0
A0
90
ENDCHAR
STARTCHAR 006C
ENCODING 108
SWIDTH 562 0
DWIDTH 5 0
BBX 3 7 1 1
BITMAP
C0
40
40
40
40
40
E0
ENDCHAR
STARTCHAR 006D
ENCODING 109
SWIDTH 562 0
DWIDTH 5 0
BBX 5 5 0 1
BITMAP
D0
A8
A8
88
88
ENDCHAR
STARTCHAR 006E
ENCODING 110
SWIDTH 562 0
DWIDTH 5 0
BBX 5 5 0 1
BITMAP
B0
C8
88
88
88
ENDCHAR
STARTCHAR 006F
ENCODING 111
SWIDTH 562 0
DWIDTH 5 0
BBX 5 5 0 1
BITMAP
70
88
88
88
70
ENDCHAR
STARTCHAR 0070
ENCODING 112
SWIDTH 562 0
DWIDTH 5 0
BBX 5 5 0 1
BITMAP
F0
88
F0
80
80
ENDCHAR
STARTCHAR 0071
ENCODING 113
SWIDTH 562 0
DWIDTH 5 0
BBX 5 5 0 1
BITMAP
68
98
78
08
08
ENDCHAR
STARTCHAR 0072
ENCODING 114
SWIDTH 562 0
DWIDTH 5 0
BBX 5 5 0 1
BITMAP
B0
C8
80
80
80
ENDCHAR
STARTCHAR 0073
ENCODING 115
SWIDTH 562 0
DWIDTH 5 0
BBX 5 5 0 1
BITMAP
70
80
70
08
F0
ENDCHAR
STARTCHAR 0074
ENCODING 116
SWIDTH 562 0
DWIDTH 5 0
BBX 5 7 0 1
BITMAP
40
40
E0
40
40
48
30
ENDCHAR
STARTCHAR 0075
ENCODING 117
SWIDTH 562 0
DWIDTH 5 0
BBX 5 5 0 1
BITMAP
88
88
88
98
68
ENDCHAR
STARTCHAR 0076
ENCODING 118
SWIDTH 562 0
DWIDTH 5 0
BBX 5 5 0 1
BITMAP
88
88
88
50
20
ENDCHAR
STARTCHAR 0077
ENCODING 119
SWIDTH 562 0
DWIDTH 5 0
BBX 5 5 0 1
BITMAP
88
88
A8
A8
50
ENDCHAR
STARTCHAR 0078
ENCODING 120
SWIDTH 562 0
DWIDTH 5 0
BBX 5 5 0 1
BITMAP
88
50
20
50
88
ENDCHAR
STARTCHAR 0079
ENCODING 121
SWIDTH 562 0
DWIDTH 5 0
BBX 5 5 0 1
BITMAP
88
88
78
08
70
ENDCHAR
STARTCHAR 007A
ENCODING 122
SWIDTH 562 0
DWIDTH 5 0
BBX 5 5 0 1
BITMAP
F8
10
20
40
F8
ENDCHAR
STARTCHAR 007B
ENCODING 123
SWIDTH 562 0
DWIDTH 5 0
BBX 3 7 1 1
BITMAP
20
40
40
80
40
40
20
ENDCHAR
STARTCHAR 007C
ENCODING 124
SWIDTH 562 0
DWIDTH 5 0
BBX 1 7 2 1
BITMAP
80
80
80
80
80
80
80
ENDCHAR
STARTCHAR 007D
ENCODING 125
SWIDTH 562 0
DWIDTH 5 0
BBX 3 7 2 1
BITMAP
80
40
40
20
40
40
80
ENDCHAR
STARTCHAR 007E
ENCODING 126
SWIDTH 562 0
DWIDTH 5 0
BBX 5 2 0 3
BITMAP
68
98
ENDCHAR
STARTCHAR 00A1
ENCODING 161
SWIDTH 562 0
DWIDTH 5 0
BBX 1 6 2 1
BITMAP
80
00
80
80
80
80
ENDCHAR
STARTCHAR 00A2
ENCODING 162
SWIDTH 562 0
DWIDTH 5 0
BBX 5 7 0 1
BITMAP
20
70
A0
A0
A8
70
20
ENDCHAR
STARTCHAR 00A3
ENCODING 163
SWIDTH 562 0
DWIDTH 5 0
BBX 5 7 0 1
BITMAP
20
50
40
F0
40
40
78
ENDCHAR
STARTCHAR 00A4
ENCODING 164
SWIDTH 562 0
DWIDTH 5 0
BBX 5 7 0 1
BITMAP
88
70
88
88
88
70
88
ENDCHAR
STARTCHAR 00A5
ENCODING 165
SWIDTH 562 0
DWIDTH 5 0
BBX 5 7 0 1
BITMAP
88
50
20
F8
20
F8
20
ENDCHAR
STARTCHAR 00A6
ENCODING 166
SWIDTH 562 0
DWIDTH 5 0
BBX 1 7 2 1
BITMAP
80
80
80
00
80
80
80
ENDCHAR
STARTCHAR 00A7
ENCODING 167
SWIDTH 562 0
DWIDTH 5 0
BBX 5 7 0 1
BITMAP
70
80
E0
50
38
08
70
ENDCHAR
STARTCHAR 00A8
ENCODING 168
SWIDTH 562 0
DWIDTH 5 0
BBX 5 5 0 2
BITMAP
D8
F8
F8
70
20
ENDCHAR
STARTCHAR 00A9
ENCODING 169
SWIDTH 562 0
DWIDTH 5 0
BBX 5 7 0 1
BITMAP
70
88
A8
C8
A8
88
70
ENDCHAR
STARTCHAR 00AA
ENCODING 170
SWIDTH 562 0
DWIDTH 5 0
BBX 4 7 0 1
BITMAP
40
40
F0
90
90
90
F0
ENDCHAR
STARTCHAR 00AB
ENCODING 171
SWIDTH 562 0
DWIDTH 5 0
BBX 5 7 0 1
BITMAP
70
A8
F8
00
D8
20
D8
ENDCHAR
STARTCHAR 00AC
ENCODING 172
SWIDTH 562 0
DWIDTH 5 0
BBX 5 7 0 1
BITMAP
70
A8
F8
A8
F8
50
50
ENDCHAR
STARTCHAR 00AE
ENCODING 174
SWIDTH 562 0
DWIDTH 5 0
BBX 5 6 0 2
BITMAP
B0
30
00
38
38
38
ENDCHAR
STARTCHAR 00AF
ENCODING 175
SWIDTH 562 0
DWIDTH 5 0
BBX 5 7 0 1
BITMAP
18
20
40
40
80
80
80
ENDCHAR
STARTCHAR 00B0
ENCODING 176
SWIDTH 562 0
DWIDTH 5 0
BBX 5 7 0 1
BITMAP
C0
20
10
10
08
08
08
ENDCHAR
STARTCHAR 00B1
ENCODING 177
SWIDTH 562 0
DWIDTH 5 0
BBX 5 7 0 1
BITMAP
20
20
F8
20
20
00
F8
ENDCHAR
STARTCHAR 00B2
ENCODING 178
SWIDTH 562 0
DWIDTH 5 0
BBX 5 7 0 1
BITMAP
F8
80
40
20
40
80
F8
ENDCHAR
STARTCHAR 00B3
ENCODING 179
SWIDTH 562 0
DWIDTH 5 0
BBX 5 7 0 1
BITMAP
F8
88
88
88
88
88
88
ENDCHAR
STARTCHAR 00B4
ENCODING 180
SWIDTH 562 0
DWIDTH 5 0
BBX 5 6 0 1
BITMAP
50
50
00
88
88
70
ENDCHAR
STARTCHAR 00B5
ENCODING 181
SWIDTH 562 0
DWIDTH 5 0
BBX 5 5 0 1
BITMAP
88
88
F0
80
80
ENDCHAR
STARTCHAR 00B6
ENCODING 182
SWIDTH 562 0
DWIDTH 5 0
BBX 5 7 0 1
BITMAP
78
E8
E8
68
28
28
28
ENDCHAR
STARTCHAR 00B7
ENCODING 183
SWIDTH 562 0
DWIDTH 5 0
BBX 5 6 0 1
BITMAP
50
50
00
70
88
88
ENDCHAR
STARTCHAR 00B8
ENCODING 184
SWIDTH 562 0
DWIDTH 5 0
BBX 5 7 0 1
BITMAP
F8
88
88
88
88
88
F8
ENDCHAR
STARTCHAR 00B9
ENCODING 185
SWIDTH 562 0
DWIDTH 5 0
BBX 5 7 0 1
BITMAP
F8
20
F8
20
F8
20
F8
ENDCHAR
STARTCHAR 00BA
ENCODING 186
SWIDTH 562 0
DWIDTH 5 0
BBX 3 3 1 5
BITMAP
40
A0
40
ENDCHAR
STARTCHAR 00BB
ENCODING 187
SWIDTH 562 0
DWIDTH 5 0
BBX 5 7 0 1
BITMAP
A8
50
A8
50
A8
50
A8
ENDCHAR
STARTCHAR 00BC
ENCODING 188
SWIDTH 562 0
DWIDTH 5 0
BBX 5 7 0 1
BITMAP
F8
A8
A8
A8
F8
20
20
ENDCHAR
STARTCHAR 00BD
ENCODING 189
SWIDTH 562 0
DWIDTH 5 0
BBX 5 7 0 1
BITMAP
20
50
50
88
88
88
F8
ENDCHAR
STARTCHAR 00BE
ENCODING 190
SWIDTH 562 0
DWIDTH 5 0
BBX 5 7 0 1
BITMAP
20
50
50
88
88
88
88
ENDCHAR
STARTCHAR 00BF
ENCODING 191
SWIDTH 562 0
DWIDTH 5 0
BBX 5 7 0 1
BITMAP
20
00
20
40
80
88
70
ENDCHAR
STARTCHAR 00C0
ENCODING 192
SWIDTH 562 0
DWIDTH 5 0
BBX 5 7 0 1
BITMAP
40
20
70
88
F8
88
88
ENDCHAR
STARTCHAR 00C1
ENCODING 193
SWIDTH 562 0
DWIDTH 5 0
BBX 5 7 0 1
BITMAP
10
20
70
88
F8
88
88
ENDCHAR
STARTCHAR 00C2
ENCODING 194
SWIDTH 562 0
DWIDTH 5 0
BBX 5 7 0 1
BITMAP
20
50
70
88
F8
88
88
ENDCHAR
STARTCHAR 00C3
ENCODING 195
SWIDTH 562 0
DWIDTH 5 0
BBX 5 7 0 1
BITMAP
50
A0
70
88
F8
88
88
ENDCHAR
STARTCHAR 00C4
ENCODING 196
SWIDTH 562 0
DWIDTH 5 0
BBX 5 7 0 1
BITMAP
50
00
70
88
F8
88
88
ENDCHAR
STARTCHAR 00C5
ENCODING 197
SWIDTH 562 0
DWIDTH 5 0
BBX 5 7 0 1
BITMAP
70
50
70
88
F8
88
88
ENDCHAR
STARTCHAR 00C6
ENCODING 198
SWIDTH 562 0
DWIDTH 5 0
BBX 5 7 0 1
BITMAP
78
A0
A0
F8
A0
A0
B8
ENDCHAR
STARTCHAR 00C7
ENCODING 199
SWIDTH 562 0
DWIDTH 5 0
BBX 5 7 0 1
BITMAP
70
88
80
80
88
70
20
ENDCHAR
STARTCHAR 00C8
ENCODING 200
SWIDTH 562 0
DWIDTH 5 0
BBX 5 7 0 1
BITMAP
40
20
F8
80
F0
80
F8
ENDCHAR
STARTCHAR 00C9
ENCODING 201
SWIDTH 562 0
DWIDTH 5 0
BBX 5 7 0 1
BITMAP
10
20
F8
80
F0
80
F8
ENDCHAR
STARTCHAR 00CA
ENCODING 202
SWIDTH 562 0
DWIDTH 5 0
BBX 5 7 0 1
BITMAP
20
50
F8
80
F0
80
F8
ENDCHAR
STARTCHAR 00CB
ENCODING 203
SWIDTH 562 0
DWIDTH 5 0
BBX 5 7 0 1
BITMAP
50
00
F8
80
F0
80
F8
ENDCHAR
STARTCHAR 00CC
ENCODING 204
SWIDTH 562 0
DWIDTH 5 0
BBX 3 7 1 1
BITMAP
80
40
E0
40
40
40
E0
ENDCHAR
STARTCHAR 00CD
ENCODING 205
SWIDTH 562 0
DWIDTH 5 0
BBX 3 7 1 1
BITMAP
20
40
E0
40
40
40
E0
ENDCHAR
STARTCHAR 00CE
ENCODING 206
SWIDTH 562 0
DWIDTH 5 0
BBX 3 7 1 1
BITMAP
40
A0
E0
40
40
40
E0
ENDCHAR
STARTCHAR 00CF
ENCODING 207
SWIDTH 562 0
DWIDTH 5 0
BBX 3 7 1 1
BITMAP
A0
00
E0
40
40
40
E0
ENDCHAR
STARTCHAR 00D0
ENCODING 208
SWIDTH 562 0
DWIDTH 5 0
BBX 5 7 0 1
BITMAP
70
48
48
E8
48
48
70
ENDCHAR
STARTCHAR 00D1
ENCODING 209
SWIDTH 562 0
DWIDTH 5 0
BBX 5 7 0 1
BITMAP
70
00
88
C8
A8
98
88
ENDCHAR
STARTCHAR 00D2
ENCODING 210
SWIDTH 562 0
DWIDTH 5 0
BBX 5 7 0 1
BITMAP
40
20
70
88
88
88
70
ENDCHAR
STARTCHAR 00D3
ENCODING 211
SWIDTH 562 0
DWIDTH 5 0
BBX 5 7 0 1
BITMAP
10
20
70
88
88
88
70
ENDCHAR
STARTCHAR 00D4
ENCODING 212
SWIDTH 562 0
DWIDTH 5 0
BBX 5 7 0 1
BITMAP
20
50
70
88
88
88
70
ENDCHAR
STARTCHAR 00D5
ENCODING 213
SWIDTH 562 0
DWIDTH 5 0
BBX 5 7 0 1
BITMAP
50
A0
70
88
88
88
70
ENDCHAR
STARTCHAR 00D6
ENCODING 214
SWIDTH 562 0
DWIDTH 5 0
BBX 5 7 0 1
BITMAP
50
70
88
88
88
88
70
ENDCHAR
STARTCHAR 00D7
ENCODING 215
SWIDTH 562 0
DWIDTH 5 0
BBX 5 5 0 2
BITMAP
88
50
20
50
88
ENDCHAR
STARTCHAR 00D8
ENCODING 216
SWIDTH 562 0
DWIDTH 5 0
BBX 5 7 0 1
BITMAP
68
90
A8
A8
A8
48
B0
ENDCHAR
STARTCHAR 00D9
ENCODING 217
SWIDTH 562 0
DWIDTH 5 0
BBX 5 7 0 1
BITMAP
40
20
88
88
88
88
70
ENDCHAR
STARTCHAR 00DA
ENCODING 218
SWIDTH 562 0
DWIDTH 5 0
BBX 5 7 0 1
BITMAP
10
20
88
88
88
88
70
ENDCHAR
STARTCHAR 00DB
ENCODING 219
SWIDTH 562 0
DWIDTH 5 0
BBX 5 7 0 1
BITMAP
20
50
00
88
88
88
70
ENDCHAR
STARTCHAR 00DC
ENCODING 220
SWIDTH 562 0
DWIDTH 5 0
BBX 5 7 0 1
BITMAP
50
00
88
88
88
88
70
ENDCHAR
STARTCHAR 00DD
ENCODING 221
SWIDTH 562 0
DWIDTH 5 0
BBX 5 7 0 1
BITMAP
10
20
88
50
20
20
20
ENDCHAR
STARTCHAR 00DE
ENCODING 222
SWIDTH 562 0
DWIDTH 5 0
BBX 4 7 0 1
BITMAP
80
80
E0
90
E0
80
80
ENDCHAR
STARTCHAR 00DF
ENCODING 223
SWIDTH 562 0
DWIDTH 5 0
BBX 5 6 0 1
BITMAP
70
88
F0
88
F0
80
ENDCHAR
STARTCHAR 00E0
ENCODING 224
SWIDTH 562 0
DWIDTH 5 0
BBX 5 7 0 1
BITMAP
40
20
70
08
78
88
78
ENDCHAR
STARTCHAR 00E1
ENCODING 225
SWIDTH 562 0
DWIDTH 5 0
BBX 5 7 0 1
BITMAP
10
20
70
08
78
88
78
ENDCHAR
STARTCHAR 00E2
ENCODING 226
SWIDTH 562 0
DWIDTH 5 0
BBX 5 7 0 1
BITMAP
20
50
70
08
78
88
78
ENDCHAR
STARTCHAR 00E3
ENCODING 227
SWIDTH 562 0
DWIDTH 5 0
BBX 5 7 0 1
BITMAP
50
A0
70
08
78
88
78
ENDCHAR
STARTCHAR 00E4
ENCODING 228
SWIDTH 562 0
DWIDTH 5 0
BBX 5 7 0 1
BITMAP
50
00
70
08
78
88
78
ENDCHAR
STARTCHAR 00E5
ENCODING 229
SWIDTH 562 0
DWIDTH 5 0
BBX 5 7 0 1
BITMAP
70
50
70
08
78
88
78
ENDCHAR
STARTCHAR 00E6
ENCODING 230
SWIDTH 562 0
DWIDTH 5 0
BBX 5 5 0 1
BITMAP
D0
28
F8
A0
F8
ENDCHAR
STARTCHAR 00E7
ENCODING 231
SWIDTH 562 0
DWIDTH 5 0
BBX 5 7 0 1
BITMAP
70
80
80
88
70
20
60
ENDCHAR
STARTCHAR 00E8
ENCODING 232
SWIDTH 562 0
DWIDTH 5 0
BBX 5 7 0 1
BITMAP
40
20
70
88
F8
80
70
ENDCHAR
STARTCHAR 00E9
ENCODING 233
SWIDTH 562 0
DWIDTH 5 0
BBX 5 7 0 1
BITMAP
10
20
70
88
F8
80
70
ENDCHAR
STARTCHAR 00EA
ENCODING 234
SWIDTH 562 0
DWIDTH 5 0
BBX 5 7 0 1
BITMAP
20
50
70
88
F8
80
70
ENDCHAR
STARTCHAR 00EB
ENCODING 235
SWIDTH 562 0
DWIDTH 5 0
BBX 5 7 0 1
BITMAP
50
00
70
88
F8
80
70
ENDCHAR
STARTCHAR 00EC
ENCODING 236
SWIDTH 562 0
DWIDTH 5 0
BBX 3 7 1 1
BITMAP
80
40
C0
40
40
40
E0
ENDCHAR
STARTCHAR 00ED
ENCODING 237
SWIDTH 562 0
DWIDTH 5 0
BBX 3 7 1 1
BITMAP
20
40
C0
40
40
40
E0
ENDCHAR
STARTCHAR 00EE
ENCODING 238
SWIDTH 562 0
DWIDTH 5 0
BBX 3 7 1 1
BITMAP
40
A0
C0
40
40
40
E0
ENDCHAR
STARTCHAR 00EF
ENCODING 239
SWIDTH 562 0
DWIDTH 5 0
BBX 3 7 1 1
BITMAP
A0
00
C0
40
40
40
E0
ENDCHAR
STARTCHAR 00F0
ENCODING 240
SWIDTH 562 0
DWIDTH 5 0
BBX 5 7 0 1
BITMAP
10
38
10
50
B0
90
70
ENDCHAR
STARTCHAR 00F1
ENCODING 241
SWIDTH 562 0
DWIDTH 5 0
BBX 5 7 0 1
BITMAP
70
00
B0
C8
88
88
88
ENDCHAR
STARTCHAR 00F2
ENCODING 242
SWIDTH 562 0
DWIDTH 5 0
BBX 5 7 0 1
BITMAP
40
20
00
70
88
88
70
ENDCHAR
STARTCHAR 00F3
ENCODING 243
SWIDTH 562 0
DWIDTH 5 0
BBX 5 7 0 1
BITMAP
10
20
00
70
88
88
70
ENDCHAR
STARTCHAR 00F4
ENCODING 244
SWIDTH 562 0
DWIDTH 5 0
BBX 5 7 0 1
BITMAP
20
50
00
70
88
88
70
ENDCHAR
STARTCHAR 00F5
ENCODING 245
SWIDTH 562 0
DWIDTH 5 0
BBX 5 7 0 1
BITMAP
50
A0
00
70
88
88
70
ENDCHAR
STARTCHAR 00F6
ENCODING 246
SWIDTH 562 0
DWIDTH 5 0
BBX 5 7 0 1
BITMAP
50
00
70
88
88
88
70
ENDCHAR
STARTCHAR 00F7
ENCODING 247
SWIDTH 562 0
DWIDTH 5 0
BBX 5 5 0 2
BITMAP
20
00
F8
00
20
ENDCHAR
STARTCHAR 00F8
ENCODING 248
SWIDTH 562 0
DWIDTH 5 0
BBX 5 5 0 1
BITMAP
68
90
A8
48
B0
ENDCHAR
STARTCHAR 00F9
ENCODING 249
SWIDTH 562 0
DWIDTH 5 0
BBX 5 7 0 1
BITMAP
40
20
88
88
88
98
68
ENDCHAR
STARTCHAR 00FA
ENCODING 250
SWIDTH 562 0
DWIDTH 5 0
BBX 5 7 0 1
BITMAP
10
20
88
88
88
98
68
ENDCHAR
STARTCHAR 00FB
ENCODING 251
SWIDTH 562 0
DWIDTH 5 0
BBX 5 7 0 1
BITMAP
20
50
00
88
88
98
68
ENDCHAR
STARTCHAR 00FC
ENCODING 252
SWIDTH 562 0
DWIDTH 5 0
BBX 5 7 0 1
BITMAP
50
00
88
88
88
98
68
ENDCHAR
STARTCHAR 00FD
ENCODING 253
SWIDTH 562 0
DWIDTH 5 0
BBX 5 7 0 1
BITMAP
10
20
88
88
78
08
70
ENDCHAR
STARTCHAR 00FE
ENCODING 254
SWIDTH 562 0
DWIDTH 5 0
BBX 4 7 0 1
BITMAP
80
E0
90
90
90
E0
80
ENDCHAR
STARTCHAR 00FF
ENCODING 255
SWIDTH 562 0
DWIDTH 5 0
BBX 5 7 0 1
BITMAP
50
00
88
88
78
08
70
ENDCHAR
STARTCHAR 02C9
ENCODING 713
SWIDTH 562 0
DWIDTH 5 0
BBX 5 7 0 1
BITMAP
18
20
40
40
80
80
80
ENDCHAR
STARTCHAR 03BC
ENCODING 956
SWIDTH 562 0
DWIDTH 5 0
BBX 5 5 0 1
BITMAP
88
88
F0
80
80
ENDCHAR
STARTCHAR 2010
ENCODING 8208
SWIDTH 562 0
DWIDTH 5 0
BBX 5 1 0 4
BITMAP
F8
ENDCHAR
STARTCHAR 2219
ENCODING 8729
SWIDTH 562 0
DWIDTH 5 0
BBX 5 6 0 1
BITMAP
50
50
00
70
88
88
ENDCHAR
ENDFONT
